<?xml version="1.0" standalone="no"?>
<!DOCTYPE svg PUBLIC "-//W3C//DTD SVG 20010904//EN"
 "http://www.w3.org/TR/2001/REC-SVG-20010904/DTD/svg10.dtd">
<svg version="1.0" xmlns="http://www.w3.org/2000/svg"
 width="512.000000pt" height="512.000000pt" viewBox="0 0 512.000000 512.000000"
 preserveAspectRatio="xMidYMid meet">
<metadata>
Created by potrace 1.14, written by Peter Selinger 2001-2017
</metadata>
<g transform="translate(0.000000,512.000000) scale(0.100000,-0.100000)"
fill="#000000" stroke="none">
<path d="M955 5104 c-40 -21 -64 -43 -83 -79 -15 -27 -17 -109 -18 -805 -1
-426 -3 -782 -3 -791 -1 -13 -43 -15 -373 -15 -205 1 -389 -2 -408 -6 -18 -4
-42 -17 -52 -30 -17 -22 -17 -109 -18 -1675 l0 -1652 22 -21 c13 -11 32 -23
43 -26 11 -2 950 -3 2086 -2 l2066 3 36 28 c48 36 54 48 143 299 42 117 85
238 96 268 51 142 333 932 353 990 26 77 118 331 147 410 11 30 35 100 54 155
19 55 38 107 43 115 5 9 14 42 21 73 16 70 4 119 -39 163 -48 49 -83 54 -370
54 -202 0 -261 3 -262 13 0 6 -1 172 -2 368 l-2 355 -25 37 c-43 62 -87 80
-206 80 -86 1 -104 4 -105 17 -1 8 -2 170 -4 360 -2 351 -4 371 -42 416 -44
52 -67 58 -222 60 -80 2 -149 3 -153 3 -5 1 -8 64 -8 141 0 150 -8 186 -51
231 -41 43 -80 52 -233 53 l-141 1 -1 147 c-2 134 -4 151 -25 189 -13 24 -40
52 -59 63 -35 21 -46 21 -1105 23 -954 3 -1073 1 -1100 -13z m2115 -282 l0
-128 -828 0 -829 -1 -43 -24 c-29 -16 -51 -39 -67 -68 l-23 -44 0 -999 0 -999
-127 3 -128 3 0 1193 0 1192 1022 0 1023 0 0 -128z m408 -301 c22 -1 22 -3 22
-126 0 -112 -2 -125 -17 -126 -10 0 -385 -2 -833 -3 -563 -2 -823 -6 -841 -13
-38 -17 -87 -78 -95 -120 -4 -21 -8 -382 -8 -803 l-1 -765 -127 -3 -128 -3 0
980 c0 644 3 980 10 983 8 2 1943 2 2018 -1z m437 -430 c7 -1 10 -260 10 -766
l0 -765 -270 0 -269 0 55 58 c64 66 105 119 137 179 27 50 62 146 68 188 3 17
9 41 13 55 8 26 7 218 -2 255 -31 127 -62 204 -117 285 -85 126 -181 208 -315
271 -387 181 -849 9 -1022 -379 -127 -288 -70 -616 147 -844 l65 -68 -267 0
c-207 0 -268 3 -269 13 -1 17 -1 1456 0 1492 l1 30 1013 -1 c556 -1 1017 -2
1022 -3z m-880 -352 c28 -6 88 -29 134 -52 136 -66 243 -188 297 -339 23 -64
29 -113 28 -209 -2 -133 -46 -250 -132 -358 l-36 -44 -19 59 c-23 73 -46 106
-110 165 l-50 46 31 42 c47 65 65 131 60 216 -17 264 -313 406 -531 256 -139
-95 -184 -285 -105 -436 11 -22 29 -49 40 -61 19 -21 19 -21 -8 -39 -61 -40
-117 -119 -141 -199 l-15 -51 -34 40 c-162 191 -182 476 -50 694 131 215 387
323 641 270z m-32 -362 c50 -38 71 -88 64 -154 -3 -29 -12 -60 -20 -68 -9 -8
-17 -18 -19 -23 -8 -18 -66 -50 -105 -57 -55 -9 -120 20 -159 70 -57 76 -30
199 54 245 53 29 138 23 185 -13z m-2158 -136 c10 -1 14 -686 4 -695 -2 -2
-24 -7 -49 -10 -25 -2 -83 -12 -130 -20 -47 -9 -109 -18 -136 -22 -49 -5 -51
-5 -62 23 -64 158 -259 718 -253 723 7 4 575 5 626 1z m3401 0 c20 -1 20 -4
20 -341 l1 -340 -86 0 -86 0 0 338 c0 316 1 337 18 342 16 4 41 5 133 1z
m-1247 -358 c57 -18 137 -87 147 -127 3 -13 6 -50 7 -83 l2 -58 -70 -24 c-99
-35 -259 -36 -362 -2 -49 16 -73 29 -74 40 -10 117 38 206 136 252 51 24 145
25 214 2z m-2739 -283 c38 -107 78 -206 88 -219 27 -36 90 -65 137 -64 22 1
81 9 130 18 50 8 113 18 141 21 l52 6 -255 -714 c-140 -392 -282 -789 -315
-883 -34 -93 -63 -172 -65 -174 -1 -2 -3 502 -2 1120 0 657 4 1116 9 1104 5
-11 41 -108 80 -215z m4670 -262 c-60 -172 -490 -1377 -595 -1668 -35 -96 -89
-248 -120 -337 l-58 -163 -1974 0 -1974 0 6 23 c4 12 27 76 50 142 24 66 105
293 180 505 75 212 140 394 145 405 5 11 50 137 101 280 50 143 107 302 126
354 19 52 63 176 98 276 35 100 69 193 74 208 l11 27 1974 0 1975 0 -19 -52z"/>
<path d="M1845 2197 c-88 -30 -173 -118 -202 -207 -55 -169 19 -343 177 -419
l55 -26 1 -97 c2 -117 8 -155 37 -210 23 -43 85 -94 140 -115 23 -8 207 -12
682 -12 l650 0 48 23 c64 32 92 59 123 123 23 47 26 66 28 171 l1 118 52 23
c208 92 266 366 113 534 -163 178 -444 140 -558 -77 -24 -45 -27 -62 -27 -146
0 -80 4 -103 25 -145 32 -65 102 -135 165 -164 28 -13 52 -27 55 -31 7 -12 4
-171 -4 -203 -14 -57 -9 -57 -676 -57 -446 0 -617 3 -633 12 -41 21 -46 39
-47 149 l0 105 51 24 c216 97 268 377 103 547 -90 92 -233 124 -359 80z m211
-178 c76 -47 98 -163 45 -237 -42 -57 -51 -60 -51 -17 0 96 -84 143 -147 83
-18 -17 -23 -32 -23 -72 l0 -50 -34 33 c-19 19 -39 51 -46 76 -41 147 124 266
256 184z m1501 16 c45 -19 70 -41 90 -78 32 -63 22 -145 -23 -191 -35 -34 -41
-33 -41 9 0 76 -47 114 -116 92 -33 -11 -56 -51 -53 -95 1 -18 -1 -32 -4 -32
-13 0 -39 26 -59 60 -77 129 67 293 206 235z"/>
</g>
</svg>
